# Blender v2.75 (sub 0) OBJ File: 'krl.blend'
# www.blender.org
mtllib krl.mtl
o InactiveTarget_Target
v 0.000000 0.000000 -100.000000
v 0.000000 0.000000 100.000000
l 1 2
o Normal_Cube.001
v 100.000000 99.999992 100.000000
v 100.000000 -100.000000 100.000000
v -100.000000 99.999939 100.000031
v -100.000000 -100.000061 99.999931
v 0.000000 99.999969 150.000015
v 0.000000 -100.000015 149.999969
vn 0.447200 0.000000 -0.894400
vn -0.447200 0.000000 -0.894400
usemtl Material
s off
f 7//1 8//1 6//1 5//1
f 3//2 4//2 8//2 7//2
o Coplanar_Cube
v 100.000000 99.999992 100.000000
v 100.000000 -100.000000 100.000000
v 100.000000 -99.999985 -100.000008
v 100.000000 100.000031 -99.999969
v 50.000000 100.000008 0.000018
v 50.000000 -99.999992 0.000000
vn -0.894400 0.000000 -0.447200
vn -0.894400 0.000000 0.447200
usemtl Material
s off
f 13//3 12//3 11//3 14//3
f 9//4 13//4 14//4 10//4
